<svg width="15" height="15" viewBox="0 0 15 15" fill="none" xmlns="http://www.w3.org/2000/svg">
<path fill-rule="evenodd" clip-rule="evenodd" d="M6.99997 6V5.05902L6.22358 5.44721L5.77637 4.55279L6.77637 4.05279L6.88194 4H6.99997V3H7.99997V4H8.99997V3H9.99997V3.94098L10.7764 3.55279L11.2236 4.44721L10.2236 4.94721L10.118 5H9.99997V5.94098L10.7764 5.55279L11.2236 6.44721L10.2236 6.94721L10.118 7H9.99997V8H8.99997V7H7.99997V8H6.99997V7.05902L6.22358 7.44721L5.77637 6.55279L6.77637 6.05279L6.88194 6H6.99997ZM7.99997 6V5H8.99997V6H7.99997ZM3 8.17285V6H4V7.94428L4.43408 7.84506C5.24168 7.66047 6.04601 8.16551 6.23061 8.97311C6.27418 9.16374 6.28006 9.36106 6.24791 9.55395L6.2432 9.58223C6.05866 10.6894 5.23494 11.5817 4.14598 11.8539L3.62127 11.9851L3 12.1404V11.5V9V8.57146V8.17285ZM4 9V8.97007L4.65691 8.81992C4.92611 8.75839 5.19422 8.92674 5.25575 9.19594C5.27027 9.25948 5.27223 9.32525 5.26152 9.38955L5.2568 9.41783C5.14324 10.0992 4.65453 10.6544 4 10.8568V9Z" fill="black"/>
</svg>
